<svg width="26" height="21" viewBox="0 0 26 21" fill="none" xmlns="http://www.w3.org/2000/svg">
<path d="M21.4264 6.39469L19.5372 4.50546L20.5028 3.53986C21.0024 3.04027 21.0024 2.23055 20.5028 1.73096L19.1463 0.374489C18.8965 0.124696 18.5692 0 18.2418 0C17.9145 0 17.5872 0.124696 17.3374 0.374489L16.3718 1.34009L15.4066 0.374489C15.1568 0.124696 14.8295 0 14.5022 0C14.1748 0 13.8475 0.124696 13.5977 0.374489L9.74131 4.23088C9.24173 4.73047 9.24173 5.5402 9.74131 6.03938L10.7069 7.00498L0.788751 16.9231C0.289166 17.4227 0.289166 18.2325 0.788751 18.732L2.14522 20.0885C2.39502 20.3383 2.72234 20.463 3.04967 20.463C3.377 20.463 3.70433 20.3383 3.95412 20.0885L13.8723 10.1703L15.7615 12.0596V16.6262H17.0404C21.9847 16.6262 25.993 12.6179 25.993 7.67362V6.39469H21.4264ZM18.2407 1.27894H18.2418L19.5983 2.63541L18.6327 3.60101L17.2759 2.24374L18.2407 1.27894ZM3.04967 19.1841L1.6932 17.8276L11.6114 7.90943L12.9678 9.2659L3.04967 19.1841ZM17.0404 15.3472V11.53L10.6458 5.13533L14.501 1.27894H14.5022L20.8968 7.67362H24.7141C24.7141 11.9049 21.2717 15.3472 17.0404 15.3472Z" fill="#00F0B5"/>
</svg>
