<svg width="27" height="34" viewBox="0 0 27 34" fill="none" xmlns="http://www.w3.org/2000/svg">
<path d="M5.625 13.5C5.63808 16.0987 5.59273 21.4288 3.2658 29.25H23.7329C21.4081 21.4579 21.3623 16.1151 21.375 13.5L24.2558 10.6192C24.4125 10.4625 24.5368 10.2765 24.6216 10.0717C24.7064 9.867 24.75 9.64756 24.75 9.42595V1.6875C24.75 0.755508 23.9945 0 23.0625 0H3.9375C3.00551 0 2.25 0.755508 2.25 1.6875V9.42602C2.25 9.87356 2.42782 10.3028 2.74423 10.6193L5.625 13.5ZM4.5 2.25H7.875V5.625H10.125V2.25H16.875V5.625H19.125V2.25H22.5V9.19301L19.1295 12.5635C19.1156 15.4394 19.0483 20.0403 20.784 27H6.21309C7.95059 20.0256 7.88477 15.4373 7.87029 12.5634L4.5 9.19301V2.25ZM15.4688 18H11.5312V14.0625C11.5312 12.9752 12.4127 12.0938 13.5 12.0938C14.5873 12.0938 15.4688 12.9752 15.4688 14.0625V18ZM27 32.3438V32.9062C27 33.3722 26.6222 33.75 26.1562 33.75H0.84375C0.377789 33.75 0 33.3722 0 32.9062V32.3438C0 31.8778 0.377789 31.5 0.84375 31.5H26.1562C26.6222 31.5 27 31.8778 27 32.3438Z" fill="#F67110"/>
</svg>
