<svg width="27" height="29" viewBox="0 0 27 29" fill="none" xmlns="http://www.w3.org/2000/svg">
<path d="M26.7308 17.5624C25.9995 14.5022 23.9575 12.5446 23.6987 9.81064C23.5075 7.85864 24.8913 6.58168 24.7507 4.21903C24.6044 1.78324 22.8999 0.00562537 20.7004 0C18.5009 0.00562537 16.802 1.78324 16.6558 4.21903C16.5151 6.58168 17.8934 7.86426 17.7077 9.81064C17.449 12.5446 15.4013 14.5078 14.6757 17.5624C13.9725 20.5045 14.6982 25.4323 16.262 28.3237L16.5151 28.7963H24.8969L25.1501 28.3237C26.7083 25.4323 27.434 20.5045 26.7308 17.5624ZM22.9506 4.32591C23.0462 5.93476 22.0449 7.09921 21.8986 9.00059H19.5022C19.356 7.09359 18.349 5.94039 18.4503 4.32591C18.6528 0.945062 22.7481 0.945062 22.9506 4.32591ZM23.8 26.9961H17.6008C16.4195 24.4535 15.857 20.3188 16.4195 17.9787C17.0214 15.4585 18.7765 13.6471 19.3503 10.7951H22.0505C22.6243 13.6471 24.3794 15.4585 24.9813 17.9787C25.5382 20.3245 24.9757 24.4535 23.8 26.9961ZM9.2978 9.81627C9.11216 7.86426 10.4904 6.58731 10.3497 4.22465C10.2035 1.78324 8.499 0.0112507 6.29948 0.00562537C4.09996 0.00562537 2.4011 1.78324 2.24921 4.22465C2.10296 6.58731 3.4868 7.86426 3.30116 9.81627C3.04239 12.5558 0.994758 14.5134 0.269085 17.568C-0.434086 20.5101 0.291587 25.4435 1.85544 28.335L2.10858 28.8075H10.4904L10.7435 28.335C12.3074 25.4435 13.033 20.5157 12.3299 17.568C11.6042 14.5134 9.55657 12.5502 9.2978 9.81627ZM8.54963 4.33153C8.64526 5.94601 7.64394 7.09359 7.49768 9.00059H5.10128C4.95502 7.09359 3.94808 5.94601 4.04933 4.33153C4.25185 0.950687 8.34711 0.950687 8.54963 4.33153ZM9.39906 27.0018H3.1999C2.01857 24.4591 1.45604 20.3245 2.01857 17.9843C2.62049 15.4641 4.38123 13.6528 4.94939 10.8007H7.64957C8.22336 13.6528 9.97847 15.4641 10.5804 17.9843C11.1429 20.3245 10.5804 24.4591 9.39906 27.0018Z" fill="#00F0B5"/>
</svg>
