<svg width="116" height="24" viewBox="0 0 116 24" fill="none" xmlns="http://www.w3.org/2000/svg">
<path d="M44.6497 0.945045V2.90325H41.8459V11.3294H39.7987V2.90325H37.0098V0.945045H44.6497Z" fill="white"/>
<path d="M45.9733 8.40698C46.2304 9.33663 46.9276 9.80146 48.065 9.80146C48.7968 9.80146 49.3507 9.55421 49.7265 9.05972L51.2693 9.94981C50.5375 11.008 49.4595 11.5371 48.0353 11.5371C46.809 11.5371 45.8249 11.1663 45.0832 10.4245C44.3414 9.68278 43.9706 8.74818 43.9706 7.62073C43.9706 6.50317 44.3365 5.57352 45.0683 4.83178C45.8002 4.08015 46.7397 3.70433 47.887 3.70433C48.9749 3.70433 49.8699 4.08015 50.5721 4.83178C51.2841 5.58341 51.6402 6.51306 51.6402 7.62073C51.6402 7.86798 51.6155 8.13006 51.566 8.40698H45.9733ZM45.9436 6.92349H49.7265C49.6177 6.41911 49.3902 6.04329 49.0441 5.79605C48.7078 5.5488 48.3221 5.42517 47.887 5.42517C47.3727 5.42517 46.9474 5.55869 46.6112 5.82572C46.2749 6.08285 46.0524 6.44878 45.9436 6.92349Z" fill="white"/>
<path d="M59.2378 10.4097C58.4763 11.1613 57.5467 11.5371 56.4489 11.5371C55.3511 11.5371 54.4214 11.1613 53.6599 10.4097C52.9083 9.64816 52.5325 8.71851 52.5325 7.62073C52.5325 6.52295 52.9083 5.59825 53.6599 4.84661C54.4214 4.08509 55.3511 3.70433 56.4489 3.70433C57.5467 3.70433 58.4763 4.08509 59.2378 4.84661C59.9994 5.59825 60.3801 6.52295 60.3801 7.62073C60.3801 8.71851 59.9994 9.64816 59.2378 10.4097ZM55.0099 9.08939C55.3956 9.47509 55.8753 9.66794 56.4489 9.66794C57.0225 9.66794 57.5022 9.47509 57.8879 9.08939C58.2736 8.70368 58.4664 8.21413 58.4664 7.62073C58.4664 7.02734 58.2736 6.53779 57.8879 6.15208C57.5022 5.76638 57.0225 5.57352 56.4489 5.57352C55.8753 5.57352 55.3956 5.76638 55.0099 6.15208C54.6341 6.53779 54.4462 7.02734 54.4462 7.62073C54.4462 8.21413 54.6341 8.70368 55.0099 9.08939Z" fill="white"/>
<path d="M68.0071 3.91202V11.3294H66.0934V5.75154H63.9127V11.3294H61.999V5.75154H60.9309V3.91202H61.999V3.83784C61.999 1.77085 63.161 0.737357 65.4852 0.737357C66.0093 0.737357 66.5879 0.806587 67.2208 0.945045V2.69556C66.5582 2.61644 65.9797 2.57688 65.4852 2.57688C64.9511 2.57688 64.5555 2.67083 64.2984 2.85874C64.0412 3.03676 63.9127 3.36313 63.9127 3.83784V3.91202H68.0071Z" fill="white"/>
<path d="M73.7132 0.945045C74.7121 0.945045 75.5527 1.2813 76.2351 1.95382C76.9175 2.62633 77.2587 3.45214 77.2587 4.43124C77.2587 5.41034 76.9175 6.23615 76.2351 6.90866C75.5527 7.58117 74.7121 7.91743 73.7132 7.91743H71.8885V11.3294H69.8413V0.945045H73.7132ZM73.7132 6.00373C74.1483 6.00373 74.5093 5.85538 74.7961 5.55869C75.0829 5.2521 75.2263 4.87628 75.2263 4.43124C75.2263 3.9763 75.0829 3.60049 74.7961 3.30379C74.5093 3.00709 74.1483 2.85874 73.7132 2.85874H71.8885V6.00373H73.7132Z" fill="white"/>
<path d="M84.3296 10.4097C83.5681 11.1613 82.6384 11.5371 81.5407 11.5371C80.4429 11.5371 79.5132 11.1613 78.7517 10.4097C78.0001 9.64816 77.6243 8.71851 77.6243 7.62073C77.6243 6.52295 78.0001 5.59825 78.7517 4.84661C79.5132 4.08509 80.4429 3.70433 81.5407 3.70433C82.6384 3.70433 83.5681 4.08509 84.3296 4.84661C85.0911 5.59825 85.4719 6.52295 85.4719 7.62073C85.4719 8.71851 85.0911 9.64816 84.3296 10.4097ZM80.1017 9.08939C80.4874 9.47509 80.967 9.66794 81.5407 9.66794C82.1143 9.66794 82.5939 9.47509 82.9796 9.08939C83.3653 8.70368 83.5582 8.21413 83.5582 7.62073C83.5582 7.02734 83.3653 6.53779 82.9796 6.15208C82.5939 5.76638 82.1143 5.57352 81.5407 5.57352C80.967 5.57352 80.4874 5.76638 80.1017 6.15208C79.7259 6.53779 79.538 7.02734 79.538 7.62073C79.538 8.21413 79.7259 8.70368 80.1017 9.08939Z" fill="white"/>
<path d="M86.8182 11.3294V0.5H88.7319V11.3294H86.8182Z" fill="white"/>
<path d="M92.1908 6.01857C92.1908 6.21637 92.3194 6.37955 92.5765 6.50812C92.8435 6.6268 93.165 6.73559 93.5408 6.83449C93.9166 6.9235 94.2924 7.04217 94.6682 7.19052C95.044 7.32898 95.3605 7.56634 95.6177 7.9026C95.8847 8.23885 96.0182 8.65917 96.0182 9.16356C96.0182 9.92508 95.7314 10.5135 95.1578 10.9289C94.5941 11.3344 93.8869 11.5371 93.0364 11.5371C91.5133 11.5371 90.4749 10.9487 89.9211 9.77179L91.5826 8.83719C91.8002 9.48004 92.2848 9.80146 93.0364 9.80146C93.7188 9.80146 94.06 9.58883 94.06 9.16356C94.06 8.96576 93.9265 8.80752 93.6595 8.68884C93.4023 8.56028 93.0858 8.44654 92.71 8.34764C92.3342 8.24874 91.9584 8.12512 91.5826 7.97677C91.2068 7.82842 90.8853 7.59601 90.6183 7.27953C90.3612 6.95317 90.2326 6.54768 90.2326 6.06307C90.2326 5.33122 90.4996 4.75761 91.0337 4.34223C91.5776 3.91696 92.2501 3.70433 93.0512 3.70433C93.6545 3.70433 94.2034 3.84279 94.6979 4.11971C95.1924 4.38673 95.583 4.77244 95.8699 5.27683L94.238 6.16692C94.0007 5.66253 93.6051 5.41034 93.0512 5.41034C92.804 5.41034 92.5963 5.46473 92.4282 5.57352C92.2699 5.68231 92.1908 5.83066 92.1908 6.01857Z" fill="white"/>
<path d="M104.088 11.3294H101.863L99.1626 7.96194V11.3294H97.2489V0.945045H99.1626V7.17569L101.714 3.91202H103.999L101.017 7.57623L104.088 11.3294Z" fill="white"/>
<path d="M105.992 3.02193C105.676 3.02193 105.399 2.90819 105.162 2.68072C104.934 2.44337 104.82 2.16645 104.82 1.84997C104.82 1.5335 104.934 1.25658 105.162 1.01922C105.399 0.781862 105.676 0.663183 105.992 0.663183C106.319 0.663183 106.596 0.781862 106.823 1.01922C107.061 1.25658 107.179 1.5335 107.179 1.84997C107.179 2.16645 107.061 2.44337 106.823 2.68072C106.596 2.90819 106.319 3.02193 105.992 3.02193ZM105.043 11.3294V3.91202H106.957V11.3294H105.043Z" fill="white"/>
<path d="M110.325 8.40698C110.582 9.33663 111.28 9.80146 112.417 9.80146C113.149 9.80146 113.703 9.55421 114.078 9.05972L115.621 9.94981C114.889 11.008 113.811 11.5371 112.387 11.5371C111.161 11.5371 110.177 11.1663 109.435 10.4245C108.693 9.68278 108.323 8.74818 108.323 7.62073C108.323 6.50317 108.688 5.57352 109.42 4.83178C110.152 4.08015 111.092 3.70433 112.239 3.70433C113.327 3.70433 114.222 4.08015 114.924 4.83178C115.636 5.58341 115.992 6.51306 115.992 7.62073C115.992 7.86798 115.967 8.13006 115.918 8.40698H110.325ZM110.296 6.92349H114.078C113.97 6.41911 113.742 6.04329 113.396 5.79605C113.06 5.5488 112.674 5.42517 112.239 5.42517C111.725 5.42517 111.299 5.55869 110.963 5.82572C110.627 6.08285 110.404 6.44878 110.296 6.92349Z" fill="white"/>
<path d="M93.2419 23.5004C92.5958 23.5004 92.0419 23.3487 91.5804 23.0455C91.1255 22.7422 90.8057 22.3268 90.6211 21.7993L91.4123 21.3444C91.6826 22.1817 92.2991 22.6004 93.2617 22.6004C93.7364 22.6004 94.099 22.5048 94.3496 22.3136C94.6001 22.1158 94.7254 21.8554 94.7254 21.5323C94.7254 21.2026 94.6001 20.9554 94.3496 20.7906C94.099 20.6257 93.6804 20.451 93.0936 20.2664C92.8035 20.1741 92.5826 20.1016 92.4309 20.0488C92.2793 19.9895 92.0881 19.9038 91.8573 19.7917C91.6332 19.673 91.465 19.5543 91.3529 19.4356C91.2409 19.3104 91.1387 19.1488 91.0464 18.951C90.9606 18.7532 90.9178 18.5291 90.9178 18.2785C90.9178 17.6785 91.1288 17.2038 91.5507 16.8544C91.9727 16.4983 92.487 16.3203 93.0936 16.3203C93.6408 16.3203 94.1155 16.4588 94.5177 16.7357C94.9265 17.0126 95.2331 17.3785 95.4375 17.8335L94.6661 18.2785C94.3694 17.5664 93.8452 17.2104 93.0936 17.2104C92.7178 17.2104 92.4145 17.3027 92.1837 17.4873C91.9529 17.6719 91.8376 17.9225 91.8376 18.239C91.8376 18.5422 91.9463 18.773 92.1639 18.9312C92.3815 19.0895 92.7573 19.2543 93.2914 19.4257C93.4826 19.4851 93.6177 19.5279 93.6969 19.5543C93.776 19.5807 93.898 19.6268 94.0628 19.6928C94.2342 19.7587 94.3595 19.8115 94.4386 19.851C94.5177 19.8906 94.6232 19.9466 94.7551 20.0191C94.8935 20.0917 94.9957 20.1609 95.0617 20.2268C95.1276 20.2928 95.2034 20.3752 95.2891 20.4741C95.3814 20.5664 95.4474 20.662 95.4869 20.7609C95.5265 20.8598 95.5595 20.9752 95.5858 21.107C95.6188 21.2323 95.6353 21.3675 95.6353 21.5125C95.6353 22.1191 95.4144 22.6037 94.9727 22.9663C94.5309 23.3224 93.954 23.5004 93.2419 23.5004Z" fill="white"/>
<path d="M97.3546 21.2949C97.4403 21.7367 97.6414 22.0795 97.9579 22.3235C98.2809 22.5674 98.6765 22.6894 99.1446 22.6894C99.7974 22.6894 100.272 22.4488 100.569 21.9675L101.301 22.3828C100.819 23.1279 100.094 23.5004 99.1249 23.5004C98.3403 23.5004 97.7007 23.2564 97.2062 22.7685C96.7183 22.274 96.4744 21.651 96.4744 20.8993C96.4744 20.1543 96.715 19.5345 97.1963 19.04C97.6776 18.5455 98.3007 18.2983 99.0655 18.2983C99.7908 18.2983 100.381 18.5554 100.836 19.0697C101.297 19.5774 101.528 20.1906 101.528 20.9092C101.528 21.0345 101.518 21.1631 101.498 21.2949H97.3546ZM99.0655 19.1093C98.604 19.1093 98.2216 19.2411 97.9183 19.5049C97.615 19.762 97.4271 20.1081 97.3546 20.5433H100.658C100.585 20.0752 100.401 19.7191 100.104 19.4752C99.8073 19.2312 99.4611 19.1093 99.0655 19.1093Z" fill="white"/>
<path d="M103.378 19.2576C103.661 18.6444 104.175 18.3379 104.92 18.3379V19.2378C104.498 19.2181 104.136 19.3301 103.833 19.5741C103.529 19.818 103.378 20.2103 103.378 20.751V23.3718H102.517V18.4269H103.378V19.2576Z" fill="white"/>
<path d="M107.816 23.5004C107.071 23.5004 106.451 23.2531 105.957 22.7586C105.462 22.2576 105.215 21.6378 105.215 20.8993C105.215 20.1609 105.462 19.5444 105.957 19.0499C106.451 18.5488 107.071 18.2983 107.816 18.2983C108.304 18.2983 108.742 18.417 109.131 18.6543C109.52 18.8851 109.81 19.1983 110.002 19.5939L109.28 20.0092C109.154 19.7455 108.96 19.5345 108.696 19.3763C108.439 19.2181 108.146 19.1389 107.816 19.1389C107.322 19.1389 106.906 19.3071 106.57 19.6433C106.24 19.9796 106.075 20.3983 106.075 20.8993C106.075 21.3938 106.24 21.8092 106.57 22.1455C106.906 22.4817 107.322 22.6499 107.816 22.6499C108.146 22.6499 108.442 22.574 108.706 22.4224C108.97 22.2641 109.171 22.0532 109.309 21.7894L110.041 22.2147C109.83 22.6037 109.527 22.9169 109.131 23.1542C108.736 23.385 108.297 23.5004 107.816 23.5004Z" fill="white"/>
<path d="M111.426 21.2949C111.512 21.7367 111.713 22.0795 112.03 22.3235C112.353 22.5674 112.748 22.6894 113.217 22.6894C113.869 22.6894 114.344 22.4488 114.641 21.9675L115.373 22.3828C114.891 23.1279 114.166 23.5004 113.197 23.5004C112.412 23.5004 111.773 23.2564 111.278 22.7685C110.79 22.274 110.546 21.651 110.546 20.8993C110.546 20.1543 110.787 19.5345 111.268 19.04C111.75 18.5455 112.373 18.2983 113.137 18.2983C113.863 18.2983 114.453 18.5554 114.908 19.0697C115.369 19.5774 115.6 20.1906 115.6 20.9092C115.6 21.0345 115.59 21.1631 115.57 21.2949H111.426ZM113.137 19.1093C112.676 19.1093 112.293 19.2411 111.99 19.5049C111.687 19.762 111.499 20.1081 111.426 20.5433H114.73C114.657 20.0752 114.473 19.7191 114.176 19.4752C113.879 19.2312 113.533 19.1093 113.137 19.1093Z" fill="white"/>
<rect x="36.7773" y="21.416" width="48.4605" height="1.48349" rx="0.741743" fill="white"/>
<path d="M12.2603 22.8458C12.3153 22.8831 12.3715 22.8994 12.4247 22.8994C12.6522 22.8995 12.8262 22.6018 12.6351 22.3906C10.5248 20.0593 7.11795 15.7805 6.17688 11.565C5.60139 8.98702 5.99776 7.08021 6.7823 5.68154C6.84541 5.70938 6.98879 5.77467 7.16966 5.86971C7.86339 6.26023 8.35492 6.83936 8.6571 7.34759C8.67999 7.38789 8.70175 7.42798 8.72268 7.46787C8.79084 7.59778 8.92034 7.66512 9.0459 7.66512C9.16825 7.66512 9.28687 7.6013 9.34146 7.46901C10.2834 5.18914 11.1025 3.99269 11.6953 3.2297C11.9785 2.86483 11.9472 2.32965 11.5636 2.07252C10.1067 1.09684 8.51424 0.647121 6.99073 0.647121C1.69784 0.647121 -2.7729 6.06889 2.0795 13.6942V13.694L2.07888 13.6927C4.17237 17.0091 9.02622 20.6449 12.2603 22.8458Z" fill="white"/>
<path d="M15.351 22.3262C15.0933 22.3262 14.8381 22.2325 14.6409 22.0465C12.8728 20.3772 11.3376 18.1433 10.6189 17.0273C10.4126 16.7061 10.6181 16.2873 10.9944 16.2218C12.4503 15.9674 15.6854 15.1522 19.149 12.6329C23.3707 9.56246 23.3226 6.1567 20.4446 4.86132C20.0082 4.6649 19.4545 4.56254 18.8227 4.56254C17.1207 4.56254 14.8524 5.30596 12.7901 6.95875C12.5055 7.18656 12.2095 7.33315 12.0174 7.33315C11.7028 7.33315 11.667 6.9401 12.4177 5.86714C13.596 4.1839 15.3997 2.31728 17.9293 1.51046C18.3169 1.38687 19.1148 1.15222 20.1619 1.15222C20.7459 1.15222 21.4075 1.22526 22.1183 1.43121C22.7154 1.60422 23.7196 1.9492 24.2958 2.37229C28.5811 5.51834 26.9966 11.4937 23.7921 15.3889C21.434 18.2554 18.1697 20.6991 15.9354 22.1523C15.7571 22.2685 15.5533 22.3262 15.351 22.3262Z" fill="white"/>
<path d="M13.5822 3.94616C12.2772 5.3352 11.4841 6.92925 11.0594 7.97869C10.9638 8.2151 11.2848 8.37712 11.459 8.19096C14.539 4.90444 18.5728 4.01837 20.4451 4.86051C23.3231 6.15589 23.3712 9.56165 19.1495 12.6321C18.5061 13.0999 21.3007 11.5506 23.1315 8.84207C26.6334 3.66168 19.4856 -1.7116 13.5822 3.94616Z" fill="white"/>
<path d="M6.17634 11.565C5.60086 8.98699 5.99722 7.08018 6.78176 5.68162C6.98637 5.76595 5.19776 4.65693 3.61355 6.20644C1.77117 8.00852 2.27373 12.7148 7.70336 18.3267C9.53175 20.2163 11.7939 21.903 12.6346 22.3906C11.9102 21.5471 10.3549 19.6916 9.57433 18.5802C8.10128 16.4832 6.72302 14.0136 6.17634 11.565Z" fill="white"/>
</svg>
